<svg width="17" height="16" viewBox="0 0 17 16" fill="none" xmlns="http://www.w3.org/2000/svg">
<path d="M13.8335 7.33331C13.8335 6.37665 13.8322 5.70928 13.7645 5.20571C13.7069 4.77754 13.608 4.52535 13.4605 4.34568L13.394 4.27277C13.2098 4.08834 12.9504 3.96812 12.4611 3.90232C11.9575 3.83463 11.2902 3.83331 10.3335 3.83331H8.3335C7.37683 3.83331 6.70946 3.83463 6.20589 3.90232C5.77772 3.95991 5.52553 4.05883 5.34587 4.20636L5.27295 4.27277C5.08852 4.45699 4.96831 4.71646 4.90251 5.20571C4.83481 5.70928 4.8335 6.37665 4.8335 7.33331V10.6666C4.8335 11.6233 4.83481 12.2907 4.90251 12.7943C4.96831 13.2835 5.08852 13.543 5.27295 13.7272L5.34587 13.7936C5.52553 13.9411 5.77772 14.0401 6.20589 14.0976C6.70946 14.1653 7.37683 14.1666 8.3335 14.1666H10.3335C11.2902 14.1666 11.9575 14.1653 12.4611 14.0976C12.9504 14.0318 13.2098 13.9116 13.394 13.7272L13.4605 13.6543C13.608 13.4746 13.7069 13.2224 13.7645 12.7943C13.8322 12.2907 13.8335 11.6233 13.8335 10.6666V7.33331ZM14.8335 10.6666C14.8335 11.5951 14.8348 12.342 14.756 12.9277C14.6804 13.4903 14.5236 13.9698 14.1733 14.3581L14.1011 14.4342C13.7 14.8357 13.1945 15.0085 12.5946 15.0892C12.0088 15.1679 11.262 15.1666 10.3335 15.1666H8.3335C7.40502 15.1666 6.65815 15.1679 6.07243 15.0892C5.5098 15.0135 5.03035 14.8567 4.64209 14.5065L4.56592 14.4342C4.16449 14.0331 3.99166 13.5277 3.91097 12.9277C3.83221 12.342 3.8335 11.5951 3.8335 10.6666V7.33331C3.8335 6.40484 3.83221 5.65797 3.91097 5.07225C3.99166 4.47227 4.16449 3.96682 4.56592 3.56574L4.64209 3.49347C5.03035 3.14324 5.5098 2.98645 6.07243 2.91079C6.65815 2.83203 7.40502 2.83331 8.3335 2.83331H10.3335C11.262 2.83331 12.0088 2.83203 12.5946 2.91079C13.1945 2.99148 13.7 3.16431 14.1011 3.56574L14.1733 3.64191C14.5236 4.03016 14.6804 4.50961 14.756 5.07225C14.8348 5.65797 14.8335 6.40484 14.8335 7.33331V10.6666Z" fill="#5C5C5C"/>
<path d="M1.8335 10.6666V6.66665C1.8335 5.42379 1.83252 4.44105 1.93571 3.67381C2.04083 2.89236 2.26221 2.25973 2.76123 1.76105C3.26019 1.26252 3.89309 1.04074 4.67464 0.935527C5.44178 0.832284 6.42405 0.833313 7.66683 0.833313H10.3335C10.9965 0.833313 11.6322 1.09689 12.1011 1.56574C12.5699 2.03458 12.8335 2.67027 12.8335 3.33331H11.8335C11.8335 2.93549 11.6753 2.55407 11.394 2.27277C11.1127 1.99146 10.7313 1.83331 10.3335 1.83331H7.66683C6.39594 1.83331 5.49306 1.83488 4.80811 1.92706C4.13761 2.01733 3.75063 2.18603 3.46826 2.46808C3.1861 2.75 3.0168 3.13656 2.9266 3.80727C2.83445 4.49236 2.8335 5.39551 2.8335 6.66665V10.6666C2.8335 11.0645 2.99165 11.4459 3.27295 11.7272C3.55425 12.0085 3.93567 12.1666 4.3335 12.1666V13.1666C3.67046 13.1666 3.03476 12.9031 2.56592 12.4342C2.09708 11.9654 1.8335 11.3297 1.8335 10.6666Z" fill="#5C5C5C"/>
</svg>
